HIERARCHY
ROOT Hips
{
    OFFSET 0.000000 0.000000 0.000000
    CHANNELS 6 Xposition Yposition Zposition Zrotation Xrotation Yrotation
    JOINT Spine
    {
        OFFSET -0.000000 8.349382 0.000000
        CHANNELS 3 Zrotation Xrotation Yrotation
        JOINT Spine1
        {
            OFFSET -0.000000 23.269058 0.000000
            CHANNELS 3 Zrotation Xrotation Yrotation
            JOINT Neck
            {
                OFFSET -0.000000 23.173496 2.106681
                CHANNELS 3 Zrotation Xrotation Yrotation
                JOINT Head
                {
                    OFFSET -0.000000 14.255042 -2.036435
                    CHANNELS 3 Zrotation Xrotation Yrotation
                    End Site
                    {
                        OFFSET -0.000000 25.455433 0.000000
                    }
                }
            }
            JOINT LeftShoulder
            {
                OFFSET 3.917082 21.531742 0.000256
                CHANNELS 3 Zrotation Xrotation Yrotation
                JOINT LeftArm
                {
                    OFFSET 10.728225 0.000000 0.000000
                    CHANNELS 3 Zrotation Xrotation Yrotation
                    JOINT LeftForeArm
                    {
                        OFFSET 30.046112 0.000000 0.000000
                        CHANNELS 3 Zrotation Xrotation Yrotation
                        JOINT LeftHand
                        {
                            OFFSET 29.023712 0.000000 0.000000
                            CHANNELS 3 Zrotation Xrotation Yrotation
                            End Site
                            {
                                OFFSET 15.273261 0.000000 0.000000
                            }
                        }
                    }
                }
            }
            JOINT RightShoulder
            {
                OFFSET -3.920664 21.531742 0.000256
                CHANNELS 3 Zrotation Xrotation Yrotation
                JOINT RightArm
                {
                    OFFSET -10.728225 0.000000 0.000000
                    CHANNELS 3 Zrotation Xrotation Yrotation
                    JOINT RightForeArm
                    {
                        OFFSET -30.046112 0.000000 0.000000
                        CHANNELS 3 Zrotation Xrotation Yrotation
                        JOINT RightHand
                        {
                            OFFSET -29.023712 0.000000 0.000000
                            CHANNELS 3 Zrotation Xrotation Yrotation
                            End Site
                            {
                                OFFSET -15.273261 0.000000 0.000000
                            }
                        }
                    }
                }
            }
        }
    }
    JOINT LeftUpLeg
    {
        OFFSET 10.182174 0.000000 0.000000
        CHANNELS 3 Zrotation Xrotation Yrotation
        JOINT LeftLeg
        {
            OFFSET -0.000000 -49.689274 0.000000
            CHANNELS 3 Zrotation Xrotation Yrotation
            JOINT LeftFoot
            {
                OFFSET -0.000000 -39.155319 0.000000
                CHANNELS 3 Zrotation Xrotation Yrotation
                JOINT LeftToeBase
                {
                    OFFSET -0.000000 -6.618412 15.273261
                    CHANNELS 3 Zrotation Xrotation Yrotation
                    End Site
                    {
                        OFFSET -0.000000 0.000000 4.072869
                    }
                }
            }
        }
    }
    JOINT RightUpLeg
    {
        OFFSET -10.182174 0.000000 0.000000
        CHANNELS 3 Zrotation Xrotation Yrotation
        JOINT RightLeg
        {
            OFFSET -0.000000 -49.689274 0.000000
            CHANNELS 3 Zrotation Xrotation Yrotation
            JOINT RightFoot
            {
                OFFSET -0.000000 -39.155319 0.000000
                CHANNELS 3 Zrotation Xrotation Yrotation
                JOINT RightToeBase
                {
                    OFFSET -0.000000 -6.618412 15.273261
                    CHANNELS 3 Zrotation Xrotation Yrotation
                    End Site
                    {
                        OFFSET -0.000000 0.000000 4.072869
                    }
                }
            }
        }
    }
}
MOTION
Frames:    11
Frame Time:    0.008333
33.816277    100.868439    13.455695    -7.718738    9.690239    104.611603    -5.403757    1.116729    -1.281327    6.618480    -4.575408    -1.069364    -6.963913    6.318612    -4.075586    1.272518    -31.975721    -3.070513    25.424223    -7.246251    -14.019688    26.493938    -13.646111    -4.132593    22.887682    -18.542482    -7.078887    4.817963    -16.986664    4.720933    1.165520    9.351647    -19.599234    45.968689    60.249001    29.383415    -0.394869    -4.690197    14.103501    0.705057    -4.627812    2.256127    -2.939802    0.363876    -0.324864    -5.111331    -4.486688    1.763741    -19.639433    17.164202    8.889269    0.000000    0.000000    0.000000    -12.851043    1.698252    -4.610832    4.460522    -0.398617    -4.768403    3.538195    -0.391938    -12.241400    0.000000    0.000000    0.000000    
33.838249    100.833786    13.530582    -7.660042    9.704694    104.521255    -5.408727    1.254277    -1.226781    6.612199    -4.662954    -1.016565    -6.827003    6.376562    -4.092208    1.034501    -32.031567    -3.201640    25.431377    -7.116444    -14.124694    25.966984    -12.487937    -3.977242    21.668354    -18.957314    -4.821719    5.253941    -17.840574    5.518464    1.332230    9.403969    -19.634666    45.956142    60.213486    29.237108    -0.477242    -4.658330    14.250777    0.644520    -4.586550    2.222148    -2.868627    0.408855    -0.266347    -5.151193    -4.449789    1.707934    -19.629879    17.079102    8.896933    0.000000    0.000000    0.000000    -12.807985    1.743112    -4.553722    4.464162    -0.425530    -4.778924    3.422980    -0.459581    -12.159677    0.000000    0.000000    0.000000    
33.857895    100.818398    13.581148    -7.617297    9.744392    104.483200    -5.381197    1.342989    -1.205831    6.597272    -4.642547    -1.001231    -6.827811    6.418705    -4.163071    0.969941    -32.212879    -3.302943    25.338179    -7.021828    -14.127432    25.726295    -12.647849    -3.887732    19.863867    -18.768709    -2.783098    4.871734    -18.071287    5.811705    1.348134    9.390709    -19.643421    46.187393    60.125729    28.980469    -0.529656    -4.591914    14.314021    0.819760    -4.508765    2.380068    -2.858078    0.450851    -0.306792    -5.145570    -4.408314    1.670280    -19.653883    17.004665    8.949568    0.000000    0.000000    0.000000    -12.849771    1.840932    -4.445497    4.550860    -0.534561    -4.775447    3.508149    -0.465232    -12.197515    0.000000    0.000000    0.000000    
33.873055    100.805954    13.644224    -7.579776    9.774782    104.434372    -5.407191    1.394786    -1.158971    6.664735    -4.534251    -0.960730    -6.853131    6.351129    -4.245367    0.901237    -32.297073    -3.409754    25.246666    -7.020675    -14.099879    25.182428    -12.472546    -3.914636    18.913658    -18.712036    -0.558105    3.288904    -18.463755    5.872459    1.283633    9.338133    -19.695719    46.423679    60.094116    28.761250    -0.545258    -4.611656    14.439497    0.809109    -4.526319    2.359219    -2.795286    0.531768    -0.334368    -5.253467    -4.521636    1.651165    -19.586191    17.074886    9.051039    0.000000    0.000000    0.000000    -12.828300    1.916439    -4.462734    4.518948    -0.653658    -4.956830    3.536520    -0.402264    -11.888482    0.000000    0.000000    0.000000    
33.889599    100.790596    13.714084    -7.573420    9.780087    104.443527    -5.414810    1.399371    -1.161613    6.787450    -4.456935    -0.963428    -7.093001    6.337588    -4.320064    1.074986    -32.335506    -3.392004    24.924408    -7.015043    -14.065548    24.772940    -12.597456    -3.947005    18.131447    -18.761583    1.478869    0.997200    -18.937025    5.778605    1.208838    9.341507    -19.853577    46.245209    60.158585    29.001446    -0.443151    -4.686846    14.532624    0.458704    -4.622022    2.165731    -2.744258    0.520072    -0.346388    -5.271784    -4.495219    1.656910    -19.590963    17.078865    9.027054    0.000000    0.000000    0.000000    -12.811453    2.004730    -4.469337    4.534895    -0.815492    -5.034650    3.542348    -0.353926    -11.719601    0.000000    0.000000    0.000000    
33.892654    100.790146    13.753181    -7.584248    9.772875    104.376610    -5.308057    1.372404    -1.144564    6.679625    -4.371405    -0.953022    -7.086544    6.328556    -4.319482    1.137319    -32.369293    -3.365203    24.802017    -6.972059    -14.009886    24.304676    -12.959480    -4.024281    17.496183    -18.878986    3.611768    -1.527474    -19.473581    5.536104    1.342808    9.325988    -19.855591    46.056892    60.185955    29.086674    -0.449259    -4.735442    14.544720    0.488823    -4.669121    2.195267    -2.725644    0.508179    -0.319942    -5.255762    -4.527892    1.752238    -19.570488    17.154064    8.977376    0.000000    0.000000    0.000000    -12.766232    1.990563    -4.737634    4.428042    -0.887133    -5.275043    3.743084    -0.229150    -11.047231    0.000000    0.000000    0.000000    
33.894653    100.798058    13.800630    -7.616713    9.755027    104.366661    -5.244214    1.354618    -1.117037    6.663336    -4.354140    -0.925512    -7.086483    6.379270    -4.363622    1.157019    -32.417286    -3.405653    24.558828    -6.928099    -14.073615    23.954941    -13.304067    -3.918020    16.882530    -19.527403    5.509443    -3.789339    -20.457527    5.190730    1.427675    9.350104    -19.909437    45.874722    60.299549    29.170515    -0.507596    -4.918157    14.510779    0.494594    -4.844192    2.260831    -2.698836    0.458142    -0.284426    -5.240025    -4.533689    1.794942    -19.584654    17.250069    8.942991    0.000000    0.000000    0.000000    -12.783914    1.965858    -4.722733    4.478613    -0.906148    -5.284795    3.867951    -0.186253    -10.933160    0.000000    0.000000    0.000000    
33.896851    100.815758    13.838252    -7.667320    9.721996    104.369240    -5.144963    1.318227    -1.094891    6.585737    -4.361689    -0.903081    -6.994853    6.416232    -4.419336    1.117280    -32.372196    -3.491267    24.390388    -6.837017    -14.196231    23.784950    -14.633515    -3.824421    16.048317    -19.943432    7.402671    -6.327696    -21.152218    4.452445    1.493900    9.364310    -19.922443    45.954834    60.265228    29.049046    -0.536829    -4.925788    14.435857    0.547143    -4.847529    2.240878    -2.665806    0.394931    -0.269870    -5.233684    -4.557008    1.884740    -19.548403    17.387125    8.881807    0.000000    0.000000    0.000000    -12.870469    1.936379    -4.425570    4.701200    -0.948498    -5.362630    3.911682    -0.137162    -11.050549    0.000000    0.000000    0.000000    
33.887733    100.843918    13.878179    -7.752960    9.669828    104.360344    -5.051725    1.217370    -1.067296    6.548760    -4.272101    -0.876529    -6.898502    6.317631    -4.491794    1.035560    -32.302338    -3.603807    24.217361    -6.868221    -14.205689    23.627888    -15.611081    -3.654150    14.993822    -20.786037    8.996430    -7.313602    -22.146801    4.319751    1.444190    9.306525    -19.970539    46.038383    60.293171    28.978363    -0.520161    -5.003503    14.368032    0.827630    -4.919165    2.663459    -2.621829    0.281208    -0.269831    -5.229109    -4.572446    1.982821    -19.506542    17.541376    8.841166    0.000000    0.000000    0.000000    -12.927383    1.827151    -4.296276    4.876697    -0.923499    -5.337871    3.936407    -0.015244    -11.135851    0.000000    0.000000    0.000000    
33.896290    100.865341    13.908095    -7.761608    9.628667    104.353088    -4.932623    1.154620    -1.060481    6.464217    -4.140123    -0.876407    -6.843853    6.286876    -4.496726    1.096054    -32.272240    -3.587217    24.119270    -6.920642    -14.198660    23.451618    -16.543177    -3.494199    13.880192    -21.499565    10.367711    -6.909110    -22.932158    4.675004    1.430057    9.245766    -19.977583    45.973904    60.415531    29.007557    -0.517149    -5.126719    14.425033    0.317248    -5.055077    2.391532    -2.575807    0.261423    -0.252320    -5.222935    -4.602462    2.061865    -19.492197    17.686264    8.809675    0.000000    0.000000    0.000000    -12.932249    1.773648    -4.247510    4.932820    -0.849816    -5.242691    4.147401    0.004369    -11.152336    0.000000    0.000000    0.000000    
33.902504    100.880241    13.955304    -7.763862    9.553371    104.321686    -4.806903    1.132877    -1.045966    6.404716    -4.113890    -0.863242    -6.833919    6.297262    -4.516525    1.309649    -32.208794    -3.521491    24.018715    -6.884324    -14.268298    23.270382    -17.386602    -3.274634    12.903686    -22.247086    11.593926    -5.947475    -23.725960    5.602198    1.483850    9.250171    -19.974602    45.925285    60.325504    28.972589    -0.422644    -5.146725    14.496700    0.038652    -5.092535    2.308932    -2.475375    0.228517    -0.171830    -5.236186    -4.612834    2.106139    -19.474768    17.792686    8.741100    0.000000    0.000000    0.000000    -12.896137    1.690813    -4.104328    5.037992    -0.699958    -5.244543    4.200112    -0.039214    -11.223662    0.000000    0.000000    0.000000    
